<?xml version="1.0" encoding="UTF-8" standalone="no"?>
<svg
   width="170"
   height="92"
   viewBox="0 0 170 92"
   version="1.1"
   id="svg18"
   sodipodi:docname="logo.svg"
   inkscape:version="1.1.2 (0a00cf5339, 2022-02-04)"
   xmlns:inkscape="http://www.inkscape.org/namespaces/inkscape"
   xmlns:sodipodi="http://sodipodi.sourceforge.net/DTD/sodipodi-0.dtd"
   xmlns="http://www.w3.org/2000/svg"
   xmlns:svg="http://www.w3.org/2000/svg"
   xmlns:rdf="http://www.w3.org/1999/02/22-rdf-syntax-ns#"
   xmlns:cc="http://creativecommons.org/ns#"
   xmlns:dc="http://purl.org/dc/elements/1.1/"
   xmlns:sketch="http://www.bohemiancoding.com/sketch/ns">
  <sodipodi:namedview
     id="namedview20"
     pagecolor="#ffffff"
     bordercolor="#666666"
     borderopacity="1.0"
     inkscape:pageshadow="2"
     inkscape:pageopacity="0.0"
     inkscape:pagecheckerboard="0"
     showgrid="false"
     width="170px"
     inkscape:zoom="4.7279152"
     inkscape:cx="84.709641"
     inkscape:cy="46.003363"
     inkscape:window-width="1920"
     inkscape:window-height="1016"
     inkscape:window-x="0"
     inkscape:window-y="27"
     inkscape:window-maximized="1"
     inkscape:current-layer="svg18" />
  <!-- Generator: Sketch 3.3.3 (12072) - http://www.bohemiancoding.com/sketch -->
  <title
     id="title2">eclipse-foundation-white-orange</title>
  <desc
     id="desc4">Created with Sketch.</desc>
  <defs
     id="defs6" />
  <g
     id="Page-1"
     stroke="none"
     stroke-width="1"
     fill="none"
     fill-rule="evenodd"
     sketch:type="MSPage"
     transform="matrix(0.4725,0,0,0.4725,15.27952,20.356994)">
    <g
       id="eclipse-foundation-white-orange"
       sketch:type="MSLayerGroup">
      <g
         id="Layer_1"
         sketch:type="MSShapeGroup">
        <path
           d="m 266.56,84.3 -8.67,-11 h -2.71 V 91 h 3.34 V 79 l 9.31,12 h 2.07 V 73.31 h -3.34 z M 234.15,76 c 4.17,0 5.84,3.34 5.79,6.33 -0.05,2.99 -1.62,6 -5.79,6 -4.17,0 -5.74,-3.11 -5.81,-6 C 228.27,79.44 230,76 234.15,76 Z m 0,-3 c -6.12,0 -9.1,4.68 -9.1,9.33 0,4.65 2.88,9.13 9.1,9.13 6.22,0 9,-4.58 9.08,-9.16 0.08,-4.58 -2.98,-9.3 -9.08,-9.3 z M 212.92,91 V 73.31 H 209.6 V 91 Z m -23.56,0 h 3.34 V 76.34 h 5.61 v -3 h -14.57 v 3 h 5.62 z m -18.91,-6.44 h -6.58 L 167.16,77 Z m 2.83,6.44 h 3.64 L 169,73.31 h -3.64 L 157.4,91 h 3.6 l 1.51,-3.33 h 9.26 z m -38,-14.56 h 3.64 c 3.85,0 5.46,2.76 5.54,5.52 0.08,2.76 -1.52,5.83 -5.54,5.83 h -3.64 z m 3.64,-3.16 H 132 V 91 h 6.95 c 6.2,0 8.93,-4.52 8.85,-9 -0.08,-4.48 -2.8,-8.69 -8.88,-8.69 z m -22.37,11 -8.67,-11 h -2.71 V 91 h 3.34 V 79 l 9.3,12 h 2.08 V 73.31 h -3.34 z M 89.09,73.34 V 83.5 c 0,3 -1.56,4.88 -4.32,4.88 -2.76,0 -4.58,-1.69 -4.58,-4.88 V 73.36 H 76.88 V 83.5 c 0,5.33 3.62,7.91 7.86,7.91 4.45,0 7.67,-2.68 7.67,-7.91 V 73.36 Z m -33,2.65 c 4.17,0 5.84,3.34 5.79,6.33 -0.05,2.99 -1.62,6 -5.79,6 -4.17,0 -5.74,-3.11 -5.82,-6 C 50.19,79.43 51.93,76 56.1,76 Z m 0,-3 c -6.12,0 -9.1,4.68 -9.1,9.33 0,4.65 2.88,9.13 9.1,9.13 6.22,0 9,-4.58 9.08,-9.16 C 65.25,77.71 62.19,73 56.1,73 Z M 26.32,91 v -6.54 h 8.87 V 81.4 H 26.32 V 76.57 H 35.7 V 73.36 H 23 V 91 Z"
           id="Shape"
           fill="#f79422" />
        <path
           d="m 270.23,54.75 h -22.17 v -8.91 h 21.38 V 38.9 h -21.38 v -9.14 h 22.17 v -7.22 h -29.56 v 39.54 h 29.56 z m -40,-25.66 c -3,-6.1 -9.36,-7.84 -15.51,-7.84 -7.28,0 -15.29,3.38 -15.29,11.5 0,8.86 7.45,11 15.51,12 5.25,0.56 9.14,2.09 9.14,5.81 0,4.29 -4.4,5.92 -9.08,5.92 -4.68,0 -9.36,-1.92 -11.11,-6.26 l -6.21,3.22 c 2.94,7.22 9.14,9.7 17.21,9.7 8.8,0 16.58,-3.78 16.58,-12.58 0,-9.42 -7.67,-11.56 -15.91,-12.58 -4.73,-0.56 -8.79,-1.52 -8.79,-5 0,-2.93 2.65,-5.25 8.17,-5.25 4.29,0 8,2.15 9.37,4.4 z m -53.34,-6.55 c -6.21,-0.05 -12.41,0 -18.62,0 v 39.54 h 7.45 V 50.46 h 11.17 c 19.36,0 19.31,-27.92 0.02,-27.92 z m -11.17,7.11 h 11.17 c 9.47,0 9.53,14 0,14 h -11.15 z m -18,32.43 V 22.54 h -7.39 v 39.54 z m -44,-39.54 v 39.54 h 27.75 V 55.2 H 111.22 V 22.54 Z M 91.55,52 c -2.677766,2.546187 -6.225011,3.976527 -9.92,4 -9.76,0 -13.54,-6.82 -13.6,-13.37 -0.06,-6.55 4.06,-13.7 13.6,-13.7 3.540522,-0.05184 6.960876,1.283284 9.53,3.72 l 5,-4.79 c -3.834396,-3.85559 -9.052363,-6.016239 -14.49,-6 -14.27,0 -21,10.49 -20.93,20.81 C 60.81,52.99 67,63 81.63,63 c 5.58485,0.133944 10.989442,-1.981052 15,-5.87 z m -39,2.76 H 30.37 V 45.84 H 51.75 V 38.9 H 30.37 V 29.76 H 52.54 V 22.54 H 23 v 39.54 h 29.56 z"
           id="path9"
           fill="#ffffff" />
        <path
           d="m 10.66,18.52 c 9,-14.1 27.15,-19 42.25,-12.25 l -1,-0.69 C 36.492971,-4.305897 15.980897,0.17797121 6.095,15.595 -3.790897,31.012029 0.69297121,51.524103 16.11,61.41 l 1.05,0.63 C 4.69,51.14 1.61,32.63 10.66,18.52 Z"
           id="path11"
           fill="#f79422" />
        <path
           d="m 273,26.41 v 0 c 0,-2.529464 2.05054,-4.58 4.58,-4.58 2.52946,0 4.58,2.050536 4.58,4.58 v 0 c 0,2.529464 -2.05054,4.58 -4.58,4.58 -2.52946,0 -4.58,-2.050536 -4.58,-4.58 z m 8.63,0 v 0 c 0,-2.236753 -1.81325,-4.05 -4.05,-4.05 -2.23675,0 -4.05,1.813247 -4.05,4.05 v 0 c -0.0218,1.083387 0.39696,2.129247 1.16035,2.898294 0.76339,0.769046 1.80613,1.19547 2.88965,1.181706 1.08986,0.0054 2.13636,-0.426519 2.90513,-1.199053 0.76878,-0.772535 1.19559,-1.821126 1.18487,-2.910947 z m -5.94,-2.47 H 278 c 1.11,0 1.92,0.5 1.92,1.58 0.0318,0.688838 -0.42275,1.305978 -1.09,1.48 l 1.17,1.67 h -1.39 l -1,-1.5 h -0.74 v 1.5 h -1.15 z m 2.15,2.31 c 0.53,0 0.82,-0.26 0.82,-0.65 0,-0.39 -0.32,-0.66 -0.82,-0.66 h -1 v 1.31 z"
           id="path13"
           fill="#ffffff" />
      </g>
    </g>
  </g>
  <metadata
     id="metadata22">
    <rdf:RDF>
      <cc:Work
         rdf:about="">
        <dc:title>eclipse-foundation-white-orange</dc:title>
      </cc:Work>
    </rdf:RDF>
  </metadata>
</svg>
